<svg xmlns="http://www.w3.org/2000/svg" width="243" height="285" viewBox="0 0 259 306" shape-rendering="geometricPrecision" text-rendering="geometricPrecision" image-rendering="optimizeQuality" fill-rule="evenodd" clip-rule="evenodd"><defs><style>.fil0{fill:#dedede}</style></defs><g id="Capa_x0020_1"><g id="_2253439199680"><ellipse class="fil0" cx="20" cy="89" rx="20" ry="30"/><path class="fil0" d="M33 83h15.987v10.817H33z"/><ellipse class="fil0" cx="240" cy="89" rx="20" ry="30"/><path class="fil0" d="M210 83h15.987v10.817H210z"/><g><ellipse class="fil0" cx="28" cy="208" rx="18" ry="30"/><path class="fil0" d="M40 202h14.804v10.817H40z"/></g><g><ellipse class="fil0" cx="231" cy="208" rx="18" ry="30"/><path class="fil0" d="M204 202h14.804v10.817H204z"/></g><path d="M53 246c-4-72-8-143-10-180-1-38 0-40 3-42 56-33 114-30 166 0 3 2 4 4 3 42-2 37-6 108-11 180l-9 15c-3 5-6 10-9 18-3 7-5 16-7 25H79c-2-9-4-18-7-25-3-8-6-13-9-18s-6-10-10-15z" fill="#273d54"/></g></g></svg>